<svg width="508" height="431" viewBox="0 0 508 431" fill="none" xmlns="http://www.w3.org/2000/svg">
<path d="M68 59C56.402 59 47 68.402 47 80V280C47 324.735 83.2649 361 128 361H428C439.598 361 449 351.598 449 340V140C449 95.2649 412.735 59 368 59H68Z" stroke="#232323" stroke-width="2"/>
<path d="M95 86C83.402 86 74 95.402 74 107V307C74 351.735 110.265 388 155 388H455C466.598 388 476 378.598 476 367V167C476 122.265 439.735 86 395 86H95Z" stroke="#FF7F2A" stroke-width="2"/>
<path d="M60 92C60 80.9543 68.9543 72 80 72H380C424.183 72 460 107.817 460 152V352C460 363.046 451.046 372 440 372H140C95.8172 372 60 336.183 60 292V92Z" fill="white"/>
<circle cx="448" cy="60" r="60" fill="white"/>
<circle cx="60" cy="371" r="60" fill="white"/>
</svg>
